<svg width="36" height="36" viewBox="0 0 36 36" fill="none" xmlns="http://www.w3.org/2000/svg">
<path d="M18.4077 9.93921C18.4077 7.51343 18.5709 4.44046 22.482 5.08753C24.1116 5.35715 20.0374 9.13043 18.4077 9.93921Z" fill="#0A0A0B" stroke="black"/>
<path d="M7.00006 17.9379C7.00015 11.8731 15.1482 11.4688 15.9631 12.2777C16.2346 12.8166 17.5927 13.0864 20.8518 12.2777C24.2572 11.4327 27.0987 12.8166 28.1852 13.8945C24.9259 15.5113 25.7407 16.3202 25.7407 19.5547C25.7407 22.7891 29 24.4062 29 24.4062C29 24.4062 28.1849 28.4491 24.9259 30.0664C21.6668 31.6836 21.6668 30.875 20.0369 30.0664C18.4071 29.2578 16.7776 30.0664 16.7776 30.0664C16.7776 30.0664 15.9631 30.875 12.7035 30.875C9.44398 30.875 7.00001 21.9804 7.00001 21.9804C7.00001 21.9804 6.99996 24.0026 7.00006 17.9379Z" fill="#121417"/>
<path d="M15.9631 12.2777L16.4096 12.0527L16.3731 11.9801L16.3154 11.9229L15.9631 12.2777ZM7.00006 17.9379L7.50006 17.9379L7.00006 17.9379ZM7.00001 21.9804L7.48215 21.848C7.41583 21.6066 7.18125 21.4515 6.93318 21.4849C6.68512 21.5184 6.50002 21.7301 6.50001 21.9804L7.00001 21.9804ZM16.7776 30.0664L16.5554 29.6185C16.5073 29.6423 16.4635 29.6737 16.4254 29.7115L16.7776 30.0664ZM20.0369 30.0664L19.8147 30.5143L20.0369 30.0664ZM24.9259 30.0664L25.1481 30.5143H25.1481L24.9259 30.0664ZM29 24.4062L29.4901 24.505C29.5349 24.2832 29.425 24.0589 29.2222 23.9583L29 24.4062ZM28.1852 13.8945L28.4074 14.3424C28.5519 14.2707 28.653 14.1337 28.6788 13.9744C28.7045 13.8151 28.6519 13.6532 28.5373 13.5396L28.1852 13.8945ZM20.8518 12.2777L20.9722 12.763L20.8518 12.2777ZM16.3154 11.9229C16.1942 11.8026 16.0419 11.7261 15.907 11.6744C15.7652 11.6201 15.604 11.5789 15.4332 11.5479C15.0911 11.486 14.6711 11.4582 14.2081 11.4681C13.2814 11.4881 12.1332 11.6605 11.009 12.0589C8.76073 12.8557 6.50011 14.6118 6.50006 17.9379L7.50006 17.9379C7.5001 15.1992 9.31357 13.7207 11.3431 13.0015C12.3578 12.6418 13.3994 12.4858 14.2296 12.4679C14.6451 12.4589 14.9954 12.4849 15.2549 12.5319C15.3848 12.5555 15.4822 12.5826 15.5494 12.6083C15.6234 12.6366 15.6302 12.6517 15.6109 12.6326L16.3154 11.9229ZM6.50006 17.9379C6.50001 20.9702 6.5 21.9809 6.5 22.2334C6.5 22.265 6.5 22.2847 6.5 22.2951C6.5 22.3002 6.5 22.3032 6.5 22.3041C6.5 22.3041 6.5 22.3044 6.5 22.3046C6.5 22.3048 6.50001 22.3065 6.50002 22.3079C7.00098 22.8041 7.5 22.3054 7.5 22.3048C7.5 22.3044 7.5 22.3038 7.5 22.3037C7.5 22.3031 7.5 22.302 7.5 22.3005C7.5 22.2886 7.50001 22.2491 7.50001 22.2017C7.50001 22.1542 7.50001 22.0989 7.50001 22.0555C7.50001 22.0338 7.50001 22.015 7.50001 22.0017C7.50001 21.995 7.50001 21.9897 7.50001 21.9861C7.50001 21.9842 7.50001 21.9828 7.50001 21.9819C7.50001 21.9814 7.50001 21.9811 7.50001 21.9808C7.50001 21.9807 7.50001 21.9806 7.50001 21.9805C7.50001 21.9805 7.50001 21.9805 7.50001 21.9805C7.50001 21.9805 7.50001 21.9804 7.00001 21.9804C6.50001 21.9804 6.50001 21.9804 6.50001 21.9804C6.50001 21.9805 6.50001 21.9805 6.50001 21.9805C6.50001 21.9806 6.50001 21.9807 6.50001 21.9808C6.50001 21.981 6.50001 21.9814 6.50001 21.9819C6.50001 21.9828 6.50001 21.9842 6.50001 21.986C6.50001 21.9897 6.50001 21.995 6.50001 22.0016C6.50001 22.015 6.50001 22.0337 6.50001 22.0555C6.50001 22.0989 6.50001 22.1542 6.50001 22.2016C6.50001 22.249 6.5 22.2885 6.5 22.3004C6.5 22.3019 6.5 22.3029 6.5 22.3034C6.5 22.3039 6.5 22.3037 6.5 22.3033C6.5 22.3028 6.99903 21.8041 7.49999 22.3003C7.5 22.3017 7.5 22.3033 7.5 22.3035C7.5 22.3037 7.5 22.3038 7.5 22.3037C7.5 22.303 7.5 22.3003 7.5 22.295C7.5 22.2847 7.5 22.265 7.5 22.2334C7.5 21.9809 7.50001 20.9702 7.50006 17.9379L6.50006 17.9379ZM7.00001 21.9804C6.51788 22.1129 6.51791 22.113 6.51796 22.1132C6.51798 22.1133 6.51803 22.1134 6.51808 22.1136C6.51819 22.114 6.51833 22.1145 6.51851 22.1152C6.51887 22.1165 6.51937 22.1183 6.52003 22.1207C6.52134 22.1254 6.52324 22.1322 6.52573 22.1411C6.53071 22.1588 6.53803 22.1847 6.54766 22.2182C6.5669 22.2853 6.59535 22.3829 6.63261 22.5067C6.7071 22.7542 6.81689 23.1068 6.95883 23.5294C7.24228 24.3734 7.65591 25.5029 8.17485 26.6359C8.69146 27.7639 9.32376 28.9207 10.0514 29.8033C10.7647 30.6683 11.6569 31.375 12.7035 31.375V30.375C12.1204 30.375 11.4848 29.9698 10.823 29.1671C10.1757 28.382 9.58585 27.3152 9.08403 26.2195C8.58453 25.1289 8.18345 24.0348 7.9068 23.211C7.76869 22.7998 7.66208 22.4574 7.59018 22.2185C7.55424 22.0991 7.527 22.0056 7.50886 21.9424C7.49979 21.9108 7.49299 21.8868 7.48852 21.8708C7.48629 21.8629 7.48463 21.8569 7.48357 21.8531C7.48304 21.8512 7.48265 21.8498 7.48241 21.8489C7.4823 21.8485 7.48221 21.8482 7.48217 21.848C7.48215 21.848 7.48214 21.8479 7.48213 21.8479C7.48213 21.8479 7.48215 21.848 7.00001 21.9804ZM12.7035 31.375C14.3731 31.375 15.4468 31.168 16.1199 30.9454C16.457 30.8339 16.6942 30.7182 16.8553 30.6223C16.9357 30.5744 16.9969 30.5315 17.0418 30.4969C17.0643 30.4796 17.0826 30.4643 17.0971 30.4516C17.1044 30.4452 17.1108 30.4394 17.1162 30.4344C17.1189 30.4318 17.1214 30.4295 17.1237 30.4273C17.1248 30.4262 17.1259 30.4251 17.127 30.4241C17.1275 30.4236 17.128 30.4231 17.1285 30.4226C17.1287 30.4224 17.1291 30.422 17.1292 30.4219C17.1295 30.4216 17.1299 30.4212 16.7776 30.0664C16.4254 29.7115 16.4257 29.7112 16.4261 29.7108C16.4262 29.7107 16.4265 29.7104 16.4267 29.7102C16.4272 29.7097 16.4276 29.7093 16.428 29.7089C16.4289 29.7081 16.4296 29.7073 16.4304 29.7066C16.4319 29.7052 16.4331 29.704 16.4342 29.703C16.4364 29.701 16.4378 29.6998 16.4383 29.6993C16.4393 29.6984 16.4369 29.7005 16.4307 29.7053C16.4183 29.7149 16.3904 29.7352 16.3436 29.7631C16.2501 29.8188 16.0799 29.9053 15.8059 29.996C15.2569 30.1776 14.2935 30.375 12.7035 30.375V31.375ZM16.7776 30.0664C16.9999 30.5142 16.9997 30.5143 16.9996 30.5144C16.9995 30.5144 16.9994 30.5145 16.9993 30.5146C16.9991 30.5147 16.9989 30.5147 16.9988 30.5148C16.9985 30.5149 16.9984 30.515 16.9983 30.5151C16.9981 30.5151 16.9983 30.515 16.9989 30.5147C17.0001 30.5142 17.0028 30.5129 17.0069 30.511C17.0151 30.5072 17.0291 30.5008 17.0484 30.4925C17.0871 30.4759 17.1469 30.4515 17.2248 30.4239C17.381 30.3685 17.6067 30.3013 17.8777 30.2564C18.422 30.1664 19.1224 30.1708 19.8147 30.5143L20.2592 29.6185C19.3216 29.1533 18.3924 29.1577 17.7145 29.2698C17.3743 29.3261 17.0908 29.4104 16.8907 29.4814C16.7903 29.517 16.7101 29.5494 16.6533 29.5739C16.6249 29.5861 16.6022 29.5963 16.5858 29.604C16.5776 29.6078 16.5709 29.611 16.5658 29.6134C16.5633 29.6146 16.5611 29.6157 16.5594 29.6165C16.5585 29.6169 16.5578 29.6173 16.5571 29.6176C16.5568 29.6178 16.5564 29.618 16.5562 29.6181C16.556 29.6182 16.5558 29.6183 16.5558 29.6183C16.5556 29.6184 16.5554 29.6185 16.7776 30.0664ZM19.8147 30.5143C20.2016 30.7062 20.4708 30.8866 20.7772 31.0662C21.0722 31.2392 21.3909 31.4035 21.7889 31.4694C22.5756 31.5995 23.5236 31.3204 25.1481 30.5143L24.7036 29.6185C23.0691 30.4296 22.3875 30.5548 21.9521 30.4828C21.7389 30.4475 21.5483 30.3591 21.283 30.2036C21.0292 30.0548 20.6872 29.8308 20.2592 29.6185L19.8147 30.5143ZM25.1481 30.5143C26.9119 29.639 27.9946 28.1189 28.6316 26.8548C28.9519 26.2192 29.1651 25.6374 29.2986 25.2134C29.3655 25.0011 29.4127 24.8274 29.4435 24.7053C29.4589 24.6442 29.4702 24.5959 29.4778 24.562C29.4816 24.545 29.4845 24.5317 29.4866 24.5221C29.4876 24.5174 29.4884 24.5135 29.489 24.5107C29.4893 24.5092 29.4895 24.508 29.4897 24.5071C29.4898 24.5066 29.4899 24.5062 29.49 24.5059C29.49 24.5057 29.49 24.5055 29.4901 24.5054C29.4901 24.5052 29.4901 24.505 29 24.4062C28.5099 24.3074 28.5099 24.3072 28.5099 24.3071C28.5099 24.3071 28.5099 24.307 28.51 24.3069C28.51 24.3068 28.51 24.3068 28.51 24.3068C28.51 24.3068 28.5099 24.3071 28.5098 24.3076C28.5096 24.3087 28.5092 24.3107 28.5086 24.3136C28.5073 24.3194 28.5052 24.329 28.5023 24.342C28.4964 24.3682 28.487 24.4083 28.4738 24.4609C28.4472 24.5662 28.4053 24.721 28.3448 24.913C28.2237 25.2976 28.0295 25.8275 27.7386 26.4048C27.1532 27.5665 26.1989 28.8764 24.7036 29.6185L25.1481 30.5143ZM29 24.4062C29.2222 23.9583 29.2224 23.9584 29.2225 23.9585C29.2226 23.9585 29.2227 23.9586 29.2228 23.9586C29.2229 23.9587 29.223 23.9587 29.223 23.9587C29.2231 23.9588 29.223 23.9587 29.2227 23.9585C29.2221 23.9582 29.2207 23.9575 29.2186 23.9564C29.2143 23.9543 29.2072 23.9506 29.1973 23.9453C29.1775 23.9348 29.1467 23.9182 29.1066 23.8955C29.0263 23.8499 28.9088 23.7801 28.7666 23.686C28.4813 23.4973 28.1013 23.2143 27.7225 22.8384C26.9622 22.0839 26.2407 20.9911 26.2407 19.5547H25.2407C25.2407 21.3527 26.1489 22.6856 27.0182 23.5483C27.4543 23.981 27.889 24.3044 28.2149 24.52C28.3782 24.6281 28.5154 24.7098 28.6133 24.7654C28.6623 24.7931 28.7016 24.8144 28.7295 24.8292C28.7435 24.8366 28.7546 24.8424 28.7627 24.8465C28.7668 24.8486 28.7701 24.8503 28.7726 24.8515C28.7739 24.8522 28.7749 24.8527 28.7758 24.8531C28.7762 24.8533 28.7766 24.8535 28.7769 24.8537C28.7771 24.8538 28.7773 24.8539 28.7774 24.8539C28.7776 24.854 28.7778 24.8541 29 24.4062ZM26.2407 19.5547C26.2407 18.7308 26.1884 18.0486 26.1638 17.5102C26.1384 16.9548 26.1435 16.566 26.2256 16.2401C26.3717 15.66 26.7985 15.1405 28.4074 14.3424L27.963 13.4466C26.3125 14.2653 25.5171 14.9587 25.2559 15.9958C25.1342 16.4786 25.1394 16.9995 25.1648 17.556C25.1911 18.1295 25.2407 18.7613 25.2407 19.5547H26.2407ZM28.5373 13.5396C27.3367 12.3484 24.3191 10.9021 20.7313 11.7924L20.9722 12.763C24.1952 11.9632 26.8608 13.2849 27.833 14.2495L28.5373 13.5396ZM20.7313 11.7924C19.1227 12.1916 18.0212 12.3143 17.3087 12.2835C16.9524 12.2682 16.7174 12.2152 16.5724 12.156C16.5014 12.127 16.4592 12.0994 16.4358 12.0801C16.4243 12.0706 16.4176 12.0633 16.4141 12.0589C16.4123 12.0567 16.4111 12.0551 16.4105 12.0542C16.4102 12.0537 16.41 12.0533 16.4098 12.0531C16.4097 12.0529 16.4097 12.0527 16.4096 12.0527L15.5166 12.5027C15.6553 12.778 15.9055 12.9637 16.1941 13.0816C16.4819 13.1993 16.841 13.2643 17.2655 13.2826C18.1147 13.3193 19.3217 13.1725 20.9722 12.763L20.7313 11.7924Z" fill="black"/>
</svg>
